<svg xmlns="http://www.w3.org/2000/svg" width="32" height="32" viewBox="0 0 24 24" fill="none" stroke="#c9a96e" stroke-width="2" stroke-linecap="round" stroke-linejoin="round">
  <path d="M7 16.3c2.2 0 4-1.83 4-4.05 0-1.16-.57-2.26-1.71-3.19S7.29 6.75 7 5.3c-.29 1.45-1.14 2.84-2.29 3.76S3 11.1 3 12.25c0 2.22 1.8 4.05 4 4.05z"/>
  <path d="M12.56 14.1c1.93 0 3.5-1.6 3.5-3.55 0-1.02-.5-1.98-1.5-2.8S12.8 5.85 12.56 4.6c-.25 1.26-1 2.48-2 3.15s-1.5 1.78-1.5 2.8c0 1.95 1.57 3.55 3.5 3.55z"/>
  <path d="M17.5 21.25c2.6 0 4.75-2.2 4.75-4.88 0-1.4-.68-2.72-2.06-3.84s-1.97-2.6-2.31-4.28c-.35 1.73-1.37 3.41-2.75 4.53s-1.88 2.43-1.88 3.59c0 2.68 2.14 4.88 4.25 4.88z"/>
</svg>
